<svg xmlns="http://www.w3.org/2000/svg" width="153" height="64" viewBox="0 0 153 64">
    <g fill="none" fill-rule="evenodd">
        <g>
            <g>
                <path d="M0 0h152v63H0V0z" transform="translate(-1402 -331) translate(1402.5 331)"/>
                <g>
                    <path fill="#141ED2" d="M139.364 11.923c5.82.922 7.94 3.707 8.855 5.238.878 1.477 1.464 3.118 1.324 5.251-.165 2.503-.974 4.556-3.527 6.576l-.45.356.513.259c1.768.892 2.899 2.31 3.671 3.7.929 1.68 1.4 3.592 1.4 5.685 0 4.232-1.517 7.433-4.598 9.576-2.67 1.86-6.373 2.746-13.469 2.785l-.489.001c-4.92 0-9.53-.112-13.125-.31V11.797c1.25-.108 5.124-.193 10.604-.33 3.435-.085 6.72.05 9.29.457zm-5.993 21.965c-2.359 0-4.636.25-4.718.262l.023 9.106c1.97.122 4.096.209 6.234.133 1.66-.058 3.857-.188 5.416-1.786 1.395-1.428 1.647-3.57.607-5.332-.966-1.638-2.891-2.44-7.562-2.383zm-4.707-14.79v7.699l.336.032c.018.002 1.839.155 3.938.155 3.403 0 5.377-.259 6.574-1.314 1.205-1.062 1.513-2.81.766-4.311-1.143-2.293-4.64-2.464-6.992-2.473h-.217c-.849 0-3.08-.032-4.405.212zM101.42 11.774c-.815 1.678-6.483 13.405-9.08 20.095l-.178.458h-.306l-.178-.458c-2.597-6.69-8.265-18.417-9.08-20.095h-9.099c-1.966 14.177-2.94 36.104-3.073 39.245h9.058c.085-2.629.628-19.171 1.004-22.889l.095-.937h.222l.362.827c3.022 6.906 6.914 16.393 7.557 17.963h6.57c.642-1.57 4.535-11.057 7.557-17.963l.361-.827h.223l.094.937c.377 3.718.92 20.26 1.005 22.889h9.058c-.133-3.14-1.107-25.067-3.074-39.245h-9.098z" transform="translate(-1402 -331) translate(1402.5 331) translate(0 .13)"/>
                    <path fill="#EB2D4B" d="M35.6 46.44c.91-1.257 2.665-1.535 3.918-.623.712.518 1.083 1.307 1.153 2.124l.9 10.824c.076.848-.157 1.726-.696 2.47-1.205 1.661-3.527 2.03-5.185.823-1.141-.83-1.609-2.175-1.5-3.496l.89-10.76c.05-.477.218-.947.52-1.363zm-16.142-6.37c.93-1.829 3.167-2.556 4.993-1.623.69.353 1.204.9 1.569 1.526l6.229 10.59c.408.729.479 1.63.073 2.427-.634 1.244-2.154 1.739-3.397 1.104-.317-.162-.585-.382-.798-.64l-8.163-9.256c-.97-1.104-1.214-2.737-.506-4.127zm-4.642 3.527c.468-.1.966-.085 1.454.074 1.473.482 2.278 2.068 1.798 3.544-.273.838-.908 1.434-1.663 1.752L6.4 53.157c-.782.335-1.688.383-2.56.098-1.95-.637-3.014-2.736-2.379-4.688.437-1.343 1.571-2.203 2.86-2.506l5.093-1.196.615-.145 4.786-1.123zM47.09 33.37c.819-.164 1.696.046 2.328.679.987.987.988 2.589.002 3.577-.251.252-.543.44-.854.563l-11.307 4.926c-1.348.583-2.974.313-4.076-.79-1.45-1.452-1.452-3.806-.003-5.259.548-.549 1.225-.87 1.933-1.024L47.09 33.37zm-33.5-5.305c.749-1.265 2.223-2.002 3.763-1.756 2.024.322 3.405 2.228 3.083 4.256-.122.767-.483 1.424-.965 1.965l-.009.01-.063.072-3.883 4.395-.443.5-3.735 4.227c-.566.614-1.4.96-2.283.819-1.377-.22-2.316-1.516-2.097-2.896.056-.352.183-.675.362-.957l6.27-10.635zm31.262-3.065c.711-.519 1.575-.63 2.373-.445l10.558 2.472c.83.188 1.592.68 2.132 1.423 1.208 1.66.844 3.985-.812 5.195-1.14.832-2.562.864-3.783.354-.024-.01-9.924-4.147-9.948-4.159-.437-.193-.832-.498-1.134-.913-.913-1.254-.638-3.012.614-3.927zm-8.122-13.09c1.243-.634 2.764-.138 3.397 1.107.161.317.248.653.27.987L41.567 26.3c.136 1.465-.624 2.929-2.013 3.637-1.827.932-4.062.203-4.992-1.627-.352-.692-.446-1.436-.374-2.158l.54-5.618.064-.665.572-5.951c.097-.83.569-1.6 1.365-2.007zm-33.019-.118c1.41-.001 2.578.812 3.265 1.945.014.022 5.584 9.205 5.596 9.228.24.414.38.894.38 1.407 0 1.552-1.255 2.811-2.805 2.812-.88 0-1.643-.42-2.179-1.04L.888 17.92C.326 17.28 0 16.432 0 15.512c0-2.053 1.66-3.719 3.711-3.72zm10.167 2.475c.351-.056.697-.035 1.02.048l.014.003 12.024 2.675c1.432.322 2.588 1.498 2.832 3.04.32 2.029-1.06 3.933-3.086 4.255-.765.121-1.501-.019-2.164-.31l-5.169-2.249-.918-.399c-2.646-1.151-5.157-2.243-5.168-2.249-.759-.349-1.345-1.036-1.484-1.92-.219-1.38.721-2.676 2.099-2.894zM34.656.183c1.95-.635 4.044.434 4.678 2.387.435 1.343.024 2.707-.84 3.712l-3.414 3.97-.413.48-3.209 3.73c-.319.356-.731.637-1.219.796-1.473.48-3.056-.328-3.535-1.805-.272-.838-.11-1.695.314-2.396l2.527-4.172.327-.539 2.771-4.574c.436-.732 1.14-1.305 2.013-1.589z" transform="translate(-1402 -331) translate(1402.5 331) translate(0 .13)"/>
                </g>
            </g>
        </g>
    </g>
</svg>
