<svg xmlns="http://www.w3.org/2000/svg" width="24" height="24" viewBox="0 0 24 24">
    <g fill="none" fill-rule="evenodd">
        <g fill="#141ED2">
            <g>
                <g>
                    <path d="M11.25 0c-.925 0-1.688.762-1.688 1.688h1.126c0-.318.244-.563.562-.563.318 0 .563.245.563.563 0 .317-.245.562-.563.562-.925 0-1.688.762-1.688 1.688v1.124h3.376V3.938h-2.25c0-.317.244-.562.562-.562.925 0 1.688-.762 1.688-1.688C12.938.762 12.175 0 11.25 0zm4.33 0L13.5 2.496v1.442h2.25v1.124h1.125V0H15.58zm.17 1.555v1.258h-1.048l1.048-1.258zM3.74 1.69c-.294 0-.59.096-.83.29l-.027.022-1.769 1.825.037-.036c-.585.505-.746 1.3-.495 1.97.474 1.367 1.682 4.01 4.066 6.391 2.389 2.392 5.06 3.548 6.38 4.064l.014.004.013.005c.683.229 1.421.065 1.95-.387l.017-.014 1.758-1.758c.466-.467.466-1.285 0-1.751l-2.305-2.307c-.468-.468-1.286-.468-1.754 0L9.68 11.125c-.4-.191-1.383-.686-2.317-1.577-.922-.88-1.393-1.896-1.563-2.288l1.125-1.125c.493-.494.521-1.341-.048-1.794l.052.047-2.33-2.385-.027-.022c-.24-.194-.535-.29-.83-.29zm.002 1.121c.04 0 .08.016.119.046L6.148 5.2l.027.022c-.006-.005.022.049-.047.117L4.465 7.003l.128.34s.635 1.725 1.992 3.02c1.335 1.272 2.98 1.967 2.98 1.967l.35.15 1.676-1.676c.094-.095.068-.095.162 0l2.305 2.307c.096.096.096.065 0 .16l-1.714 1.714c-.26.222-.53.28-.854.173-1.273-.498-3.762-1.587-5.973-3.8-2.226-2.224-3.38-4.75-3.803-5.975l-.002-.006-.004-.008c-.085-.225-.023-.552.177-.724l.019-.016 1.718-1.771c.04-.03.08-.046.12-.046z" transform="translate(-1577 -256) translate(1577 256) translate(2.625 4.5)"/>
                </g>
            </g>
        </g>
    </g>
</svg>
